<svg width="30" height="30" xmlns="http://www.w3.org/2000/svg">
 <g id="Layer_1">
  <title>Layer 1</title>
  <g>
   <g id="svg_3">
    <title>Layer 1</title>
    <g stroke="null">
     <path d="m15.00115,2.85395c-3.29859,0 -3.71255,0.01442 -5.00809,0.07338c-1.293,0.05921 -2.17559,0.26393 -2.94785,0.56429c-0.79883,0.31023 -1.47646,0.72522 -2.15155,1.40059c-0.67561,0.67511 -1.09058,1.35276 -1.40182,2.15136c-0.30111,0.77254 -0.50606,1.6554 -0.56426,2.94794c-0.05795,1.29558 -0.07313,1.70981 -0.07313,5.00844c0,3.2987 0.01468,3.7114 0.07338,5.007c0.05946,1.293 0.26417,2.1756 0.56427,2.9479c0.31047,0.7989 0.72545,1.4765 1.4008,2.1516c0.67484,0.6757 1.35247,1.0917 2.15079,1.4019c0.77277,0.3004 1.65561,0.5051 2.94836,0.5643c1.29554,0.0589 1.70925,0.0734 5.0076,0.0734c3.2988,0 3.7115,-0.0145 5.007,-0.0734c1.293,-0.0592 2.1766,-0.2639 2.9494,-0.5643c0.7986,-0.3102 1.4752,-0.7262 2.15,-1.4019c0.6756,-0.6751 1.0906,-1.3527 1.4018,-2.1513c0.2986,-0.7726 0.5036,-1.6554 0.5643,-2.948c0.0582,-1.2955 0.0734,-1.7085 0.0734,-5.0072c0,-3.29863 -0.0152,-3.71261 -0.0734,-5.00818c-0.0607,-1.29305 -0.2657,-2.17566 -0.5643,-2.94795c-0.3112,-0.79885 -0.7262,-1.4765 -1.4018,-2.15161c-0.6756,-0.67563 -1.3512,-1.09062 -2.1508,-1.40059c-0.7743,-0.30036 -1.6574,-0.50508 -2.9504,-0.56429c-1.2955,-0.05896 -1.7079,-0.07338 -5.0075,-0.07338l0.0038,0zm-1.0896,2.18882c0.3234,-0.00051 0.6842,0 1.0896,0c3.2429,0 3.6272,0.01164 4.9078,0.06984c1.1842,0.05415 1.8269,0.25203 2.2551,0.41827c0.5668,0.22015 0.9709,0.48332 1.3957,0.90843c0.4251,0.42511 0.6883,0.82998 0.9089,1.39679c0.1663,0.42764 0.3644,1.07037 0.4183,2.25461c0.0582,1.28039 0.0708,1.66502 0.0708,4.90644c0,3.2415 -0.0126,3.6261 -0.0708,4.9065c-0.0542,1.1843 -0.252,1.827 -0.4183,2.2546c-0.2201,0.5669 -0.4838,0.9705 -0.9089,1.3953c-0.4251,0.4251 -0.8287,0.6883 -1.3957,0.9084c-0.4276,0.167 -1.0709,0.3644 -2.2551,0.4186c-1.2803,0.0582 -1.6649,0.0708 -4.9078,0.0708c-3.24317,0 -3.62753,-0.0126 -4.90788,-0.0708c-1.18421,-0.0547 -1.82692,-0.2526 -2.2553,-0.4188c-0.5668,-0.2202 -0.97166,-0.4833 -1.39675,-0.9084c-0.4251,-0.4251 -0.68826,-0.829 -0.9089,-1.3961c-0.16625,-0.4276 -0.36437,-1.0703 -0.41827,-2.2546c-0.0582,-1.2804 -0.06984,-1.665 -0.06984,-4.9085c0,-3.24349 0.01164,-3.62608 0.06984,-4.90648c0.05415,-1.18424 0.25202,-1.82697 0.41827,-2.25511c0.22014,-0.56682 0.4838,-0.97169 0.9089,-1.3968c0.42509,-0.42511 0.82995,-0.68827 1.39675,-0.90892c0.42813,-0.16701 1.07109,-0.36438 2.2553,-0.41879c1.12043,-0.05061 1.55464,-0.06579 3.81828,-0.06832l0,0.00304zm7.5728,2.01674c-0.8046,0 -1.4575,0.65209 -1.4575,1.45702c0,0.80468 0.6529,1.45752 1.4575,1.45752c0.8047,0 1.4575,-0.65284 1.4575,-1.45752c0,-0.80467 -0.6528,-1.45752 -1.4575,-1.45752l0,0.0005zm-6.4832,1.70298c-3.44459,0 -6.23733,2.79283 -6.23733,6.23746c0,3.4447 2.79274,6.2363 6.23733,6.2363c3.4445,0 6.2363,-2.7916 6.2363,-6.2363c0,-3.44463 -2.792,-6.23746 -6.2366,-6.23746l0.0003,0zm0,2.18881c2.2358,0 4.0485,1.81255 4.0485,4.04865c0,2.2359 -1.8127,4.0487 -4.0485,4.0487c-2.23609,0 -4.04858,-1.8128 -4.04858,-4.0487c0,-2.2361 1.81249,-4.04865 4.04858,-4.04865z" fill="#f7f7f7" stroke="null"/>
    </g>
   </g>
  </g>
 </g>

</svg>